<svg width="118" height="50" viewBox="0 0 118 50" fill="none" xmlns="http://www.w3.org/2000/svg">
<path d="M71.2552 43.1123C71.0029 42.7886 70.6647 42.5427 70.2792 42.4025C69.7667 42.2444 69.2313 42.1733 68.6953 42.1922H64.281V42.3957H64.5521C64.7288 42.3956 64.9028 42.4402 65.0577 42.5253C65.1693 42.5815 65.2548 42.6788 65.2963 42.7967C65.3544 43.0399 65.3773 43.2901 65.364 43.5397V45.7165H62.8088V43.5397C62.7961 43.2901 62.8189 43.0399 62.8766 42.7967C62.9183 42.6787 63.0041 42.5815 63.1159 42.5253C63.2708 42.4403 63.4448 42.396 63.6215 42.3964H63.8926V42.1888H60.6651V42.3964H60.9321C61.1112 42.3972 61.2872 42.4439 61.4431 42.5321C61.5441 42.5847 61.6243 42.6698 61.6709 42.7737C61.7333 43.0246 61.7575 43.2836 61.7427 43.5418V45.7192H58.9794C58.8068 45.6201 58.6135 45.5131 58.3993 45.3982C57.7908 45.1147 57.2321 44.7346 56.7448 44.2725C56.5902 44.0966 56.5047 43.8704 56.5042 43.6361C56.5042 43.4159 56.5756 43.2016 56.7076 43.0254C57.1338 43.466 57.4349 44.0125 57.5798 44.6084H57.752L57.611 42.4826C57.6905 42.4716 57.7707 42.4661 57.8509 42.4663C58.2008 42.4677 58.5446 42.5588 58.8493 42.7309C59.1595 42.8949 59.4177 43.1423 59.5948 43.4454C59.792 43.8219 59.9147 44.2329 59.9561 44.6559H60.1642V42.0157H59.9561C59.9403 42.1447 59.8889 42.2666 59.8077 42.3679C59.7424 42.4267 59.6569 42.4578 59.5691 42.4548C59.4144 42.4345 59.2646 42.387 59.1265 42.3143C58.7237 42.1267 58.2863 42.025 57.8421 42.0157C57.7533 42.0157 57.6673 42.0198 57.5832 42.0273C57.5155 42.0327 57.4477 42.0415 57.3799 42.0531C57.0737 42.1012 56.7815 42.2148 56.5232 42.3862C56.0463 42.1461 55.5205 42.0194 54.9867 42.0157C54.3025 42.0102 53.6302 42.1949 53.0448 42.5494C52.4593 42.9039 51.9838 43.4143 51.671 44.0235C51.3327 44.6705 51.1594 45.3913 51.1668 46.1215C51.1472 47.0041 51.4153 47.869 51.9306 48.5853C52.2571 49.0422 52.6925 49.4103 53.1973 49.6559C53.702 49.9016 54.26 50.0171 54.8206 49.9919C55.1127 49.9938 55.404 49.9621 55.6889 49.8976V49.9973H55.8969C55.9045 49.9415 55.9156 49.8862 55.9302 49.8317C56.1156 49.7733 56.2949 49.6969 56.4656 49.6038C56.5835 49.6332 56.7387 49.6784 56.9312 49.7395C57.1672 49.8212 57.4078 49.8892 57.6517 49.943C57.8575 49.9773 58.0659 49.9941 58.2746 49.9932C58.9093 50.0185 59.5285 49.7931 59.9988 49.3656C60.2106 49.1792 60.3801 48.9495 60.4957 48.692C60.6114 48.4345 60.6705 48.1552 60.6691 47.8728C60.6694 47.5694 60.5974 47.2702 60.459 47.0002C60.3148 46.7176 60.1097 46.4705 59.8585 46.2769C59.8029 46.2328 59.7365 46.1846 59.6599 46.1324H61.7468V48.4489C61.7765 48.7437 61.7298 49.0412 61.6112 49.3127C61.5281 49.409 61.4233 49.4842 61.3055 49.5319C61.1876 49.5797 61.0601 49.5988 60.9334 49.5875H60.6664V49.7951H63.894V49.5875H63.6229C63.4454 49.5872 63.2711 49.5404 63.1172 49.4518C63.0139 49.4008 62.9314 49.3154 62.8841 49.2102C62.8215 48.9611 62.797 48.704 62.8116 48.4475V46.1304H65.3668V48.4475C65.3813 48.704 65.3569 48.9611 65.2942 49.2102C65.2465 49.3151 65.1642 49.4004 65.0611 49.4518C64.9073 49.5404 64.7329 49.5872 64.5555 49.5875H64.2843V49.7951H69.1643V49.5875H68.8776C68.7601 49.5966 68.6421 49.5791 68.5323 49.5364C68.4225 49.4936 68.3237 49.4267 68.2432 49.3405C68.1055 49.0649 68.0517 48.7548 68.0887 48.4489V46.2328C68.3273 46.2848 68.5516 46.3242 68.7617 46.3509C68.9557 46.3759 69.151 46.389 69.3466 46.3902C69.9704 46.4298 70.5845 46.2199 71.0539 45.8067C71.2547 45.6105 71.4122 45.3744 71.5162 45.1135C71.6202 44.8527 71.6684 44.5729 71.6578 44.2922C71.6647 43.864 71.5223 43.4468 71.2552 43.1123ZM59.6653 48.3098C59.6651 48.4769 59.6287 48.642 59.5584 48.7936C59.4882 48.9452 59.386 49.0797 59.2587 49.1878C58.9501 49.4485 58.5537 49.5813 58.1505 49.559C57.7628 49.5627 57.3802 49.4694 57.0376 49.2876L56.9665 49.2489C57.3535 48.901 57.6763 48.4876 57.9201 48.0275L57.7486 47.9149C57.4603 48.3519 57.1043 48.7402 56.694 49.065C56.5305 48.9391 56.3913 48.7843 56.2833 48.6084C56.0814 48.2248 55.9486 47.8086 55.8908 47.3789H55.6828V49.462C55.5327 49.4846 55.3811 49.4957 55.2293 49.4952C54.7019 49.5037 54.1828 49.3626 53.7321 49.0881C53.2903 48.8132 52.9464 48.4057 52.7494 47.9237C52.52 47.3541 52.409 46.7437 52.4234 46.1297C52.4025 45.4146 52.5199 44.7022 52.769 44.0317C52.9492 43.5328 53.2811 43.1031 53.7179 42.8028C54.0845 42.5771 54.5014 42.4461 54.931 42.4216C55.3607 42.3971 55.7897 42.4798 56.1796 42.6624C55.9977 42.8381 55.8533 43.049 55.7554 43.2823C55.6574 43.5156 55.6078 43.7664 55.6096 44.0195C55.6062 44.3216 55.6794 44.6198 55.8224 44.8859C55.9797 45.1663 56.1926 45.4115 56.448 45.6065C56.8893 45.931 57.3531 46.2235 57.836 46.4818C58.2461 46.7006 58.6447 46.9402 59.0303 47.1997C59.2266 47.3416 59.3902 47.5239 59.5101 47.7344C59.61 47.9099 59.6638 48.1079 59.6667 48.3098H59.6653ZM67.0225 48.453C67.0476 48.7326 67.0099 49.0143 66.9121 49.2774C66.9173 49.3237 66.9039 49.3702 66.8748 49.4067C66.8458 49.4432 66.8035 49.4666 66.7572 49.4718C66.7109 49.477 66.6645 49.4636 66.628 49.4345C66.5916 49.4055 66.5682 49.3631 66.563 49.3168C66.4443 49.0453 66.3976 48.7478 66.4275 48.453V43.5438C66.4128 43.2853 66.4373 43.0262 66.5 42.775C66.5468 42.6714 66.627 42.5866 66.7277 42.5342L66.7365 42.5294C66.7869 42.5621 66.8325 42.6016 66.8721 42.6468C67.0048 42.9239 67.0565 43.233 67.0212 43.5384L67.0225 48.453ZM69.977 45.578C69.854 45.7201 69.7019 45.834 69.531 45.9119C69.3601 45.9897 69.1745 46.0298 68.9867 46.0293C68.8575 46.028 68.7285 46.0187 68.6004 46.0014C68.4493 45.9831 68.2764 45.9546 68.0819 45.9173V42.7533C68.3179 42.6903 68.5603 42.6546 68.8044 42.6468C69.0941 42.6417 69.3798 42.7143 69.632 42.8571C69.881 43.0044 70.0777 43.226 70.1945 43.4909C70.3282 43.778 70.396 44.0915 70.3931 44.4083C70.4117 44.8373 70.2629 45.2568 69.9783 45.578H69.977Z" fill="white"/>
<path d="M23.7812 34.7382C22.8037 34.7382 21.8663 34.3494 21.175 33.6574C20.4838 32.9655 20.0955 32.0269 20.0955 31.0483C20.0955 30.0697 20.4838 29.1312 21.175 28.4392C21.8663 27.7472 22.8037 27.3585 23.7812 27.3585C24.4651 27.376 25.1318 27.5757 25.7129 27.9371C26.2939 28.2985 26.7681 28.8084 27.0867 29.4144L30.3604 27.4555C29.9666 26.7431 29.4575 26.1011 28.8537 25.5556C27.5038 24.3637 25.7778 23.6857 23.9785 23.6408C22.6207 23.6314 21.286 23.9929 20.1182 24.6864C18.9503 25.3798 17.9934 26.379 17.3506 27.5763C17.2502 27.7669 15.4413 31.355 17.5417 34.8603C18.2137 35.9702 19.164 36.8849 20.2983 37.5135C21.4325 38.1421 22.7112 38.4628 24.0075 38.4438C25.3038 38.4248 26.5726 38.0667 27.688 37.4052C28.8033 36.7436 29.7265 35.8015 30.3658 34.6724L27.0745 32.7046C26.7541 33.3048 26.2805 33.8091 25.702 34.1663C25.1235 34.5236 24.4607 34.7209 23.7812 34.7382Z" fill="white"/>
<path d="M68.9983 34.8007C68.0208 34.8007 67.0833 34.4119 66.3921 33.72C65.7009 33.028 65.3126 32.0894 65.3126 31.1108C65.3126 30.1322 65.7009 29.1937 66.3921 28.5017C67.0833 27.8097 68.0208 27.421 68.9983 27.421C69.6821 27.4385 70.3489 27.6382 70.93 27.9996C71.511 28.361 71.9852 28.8709 72.3038 29.4769L75.5774 27.518C75.1837 26.8056 74.6746 26.1636 74.0708 25.6181C72.7209 24.4262 70.9949 23.7482 69.1956 23.7033C67.8378 23.6939 66.5031 24.0553 65.3352 24.7488C64.1673 25.4422 63.2105 26.4414 62.5676 27.6388C62.4673 27.8288 60.6577 31.4169 62.7588 34.9221C63.4308 36.032 64.3811 36.9467 65.5153 37.5753C66.6496 38.2039 67.9283 38.5246 69.2246 38.5056C70.5209 38.4866 71.7897 38.1286 72.9051 37.467C74.0204 36.8054 74.9436 35.8633 75.5829 34.7342L72.2916 32.7665C71.9712 33.3667 71.4977 33.8711 70.9192 34.2285C70.3407 34.5858 69.6779 34.7833 68.9983 34.8007Z" fill="white"/>
<path d="M7.55148 5.1909C6.15218 5.18895 4.7814 5.58676 3.60008 6.33761V0.109375H-0.000244141V19.9768H3.60008V18.8301C4.56765 19.4425 5.66421 19.8213 6.80315 19.9366C7.94209 20.0518 9.0922 19.9004 10.1626 19.4941C11.233 19.0879 12.1944 18.4381 12.9708 17.5959C13.7473 16.7538 14.3175 15.7424 14.6364 14.6418C14.9552 13.5411 15.0141 12.3813 14.8083 11.2539C14.6025 10.1266 14.1376 9.06258 13.4504 8.146C12.7633 7.22942 11.8726 6.48536 10.8488 5.97262C9.82507 5.45987 8.69622 5.19248 7.55148 5.19157V5.1909ZM7.55148 16.3025C6.82117 16.3025 6.10727 16.0857 5.50004 15.6795C4.89282 15.2733 4.41953 14.696 4.14006 14.0205C3.86058 13.3451 3.78745 12.6018 3.92993 11.8847C4.0724 11.1676 4.42408 10.509 4.94048 9.99197C5.45689 9.47498 6.11482 9.12291 6.8311 8.98028C7.54737 8.83764 8.28982 8.91084 8.96454 9.19063C9.63925 9.47042 10.2159 9.94423 10.6217 10.5521C11.0274 11.1601 11.244 11.8748 11.244 12.6059C11.244 13.5863 10.8549 14.5266 10.1625 15.2198C9.46999 15.9131 8.53079 16.3025 7.55148 16.3025Z" fill="white"/>
<path d="M38.7626 23.75C37.3023 23.7495 35.8746 24.1825 34.6601 24.9943C33.4457 25.8062 32.4989 26.9603 31.9397 28.3109C31.3805 29.6614 31.2339 31.1476 31.5185 32.5815C31.8031 34.0155 32.506 35.3327 33.5384 36.3667C34.5708 37.4006 35.8863 38.1049 37.3186 38.3903C38.7508 38.6757 40.2354 38.5295 41.5846 37.9701C42.9338 37.4108 44.0871 36.4634 44.8984 35.2479C45.7098 34.0323 46.1429 32.6032 46.1429 31.1412C46.1429 29.1814 45.3654 27.3019 43.9814 25.9158C42.5974 24.5298 40.7202 23.7507 38.7626 23.75ZM38.7626 34.8372C38.0324 34.8373 37.3186 34.6207 36.7114 34.2147C36.1042 33.8086 35.6309 33.2314 35.3514 32.5561C35.0718 31.8808 34.9986 31.1376 35.141 30.4206C35.2834 29.7036 35.6349 29.045 36.1512 28.528C36.6675 28.0111 37.3253 27.659 38.0415 27.5163C38.7576 27.3737 39.5 27.4468 40.1746 27.7266C40.8492 28.0063 41.4258 28.48 41.8315 29.0878C42.2372 29.6956 42.4538 30.4102 42.4538 31.1412C42.4538 32.1214 42.0649 33.0613 41.3727 33.7544C40.6805 34.4475 39.7416 34.837 38.7626 34.8372Z" fill="white"/>
<path d="M100.134 23.7344C98.7236 23.7322 97.342 24.1364 96.1544 24.8987V24.1198H92.5623V43.65H96.1544V37.3525C97.1204 37.9713 98.217 38.3564 99.3575 38.4772C100.498 38.598 101.651 38.4512 102.725 38.0484C103.799 37.6456 104.764 36.998 105.544 36.1567C106.325 35.3155 106.899 34.3039 107.221 33.202C107.543 32.1001 107.604 30.9383 107.4 29.8086C107.195 28.6789 106.731 27.6124 106.043 26.6936C105.355 25.7749 104.463 25.0291 103.438 24.5155C102.412 24.0018 101.281 23.7344 100.134 23.7344ZM100.134 34.8413C99.4041 34.8414 98.6902 34.6247 98.083 34.2187C97.4758 33.8126 97.0025 33.2354 96.723 32.56C96.4435 31.8846 96.3703 31.1414 96.5127 30.4244C96.6551 29.7074 97.0068 29.0488 97.5231 28.5319C98.0395 28.0149 98.6974 27.6629 99.4136 27.5203C100.13 27.3777 100.872 27.451 101.547 27.7308C102.221 28.0106 102.798 28.4845 103.204 29.0924C103.609 29.7003 103.826 30.4149 103.825 31.146C103.825 32.1257 103.437 33.0653 102.745 33.7582C102.053 34.4512 101.115 34.8407 100.136 34.8413H100.134Z" fill="white"/>
<path d="M40.5979 19.9948C42.1689 19.9969 43.6993 19.4951 44.9648 18.5631V19.9595H48.5569V5.68998H44.9648V6.64332C44.0241 5.95228 42.9333 5.49425 41.7816 5.30677C40.63 5.11929 39.4504 5.20771 38.3395 5.56476C37.2286 5.92181 36.218 6.53734 35.3906 7.36089C34.5632 8.18444 33.9426 9.19257 33.5795 10.3026C33.2164 11.4127 33.1213 12.5931 33.3019 13.7471C33.4825 14.9011 33.9337 15.9958 34.6185 16.9415C35.3033 17.8872 36.2022 18.6569 37.2416 19.1877C38.2809 19.7184 39.4311 19.995 40.5979 19.9948ZM40.5979 8.90757C41.3281 8.90757 42.0418 9.12434 42.649 9.53046C43.2561 9.93658 43.7292 10.5138 44.0087 11.1892C44.2881 11.8645 44.3612 12.6076 44.2188 13.3246C44.0763 14.0415 43.7247 14.7001 43.2084 15.217C42.6921 15.7339 42.0343 16.0859 41.3181 16.2285C40.602 16.3711 39.8597 16.2979 39.1851 16.0182C38.5105 15.7384 37.9339 15.2647 37.5283 14.6569C37.1226 14.0491 36.9061 13.3345 36.9061 12.6035C36.9061 11.6233 37.295 10.6832 37.9874 9.9901C38.6797 9.29697 39.6188 8.90757 40.5979 8.90757Z" fill="white"/>
<path d="M57.6059 19.9528C58.6189 19.953 59.6176 19.7133 60.5204 19.2532V19.9528H64.1125V5.69548H60.5204V13.4436C60.5204 14.2174 60.2133 14.9596 59.6667 15.5067C59.1202 16.0539 58.3789 16.3613 57.6059 16.3613C56.833 16.3613 56.0917 16.0539 55.5451 15.5067C54.9986 14.9596 54.6915 14.2174 54.6915 13.4436V5.69141H51.0994V13.4436C51.0994 13.4681 51.0994 13.4925 51.0994 13.5169C51.1279 15.2284 51.825 16.8606 53.0413 18.0636C54.2575 19.2667 55.8962 19.9449 57.6059 19.9528Z" fill="white"/>
<path d="M68.568 16.3578C68.5677 17.2963 68.9339 18.1977 69.5883 18.8696C70.2427 19.5415 71.1336 19.9306 72.0707 19.954H75.5836V16.4372H73.4744C73.1262 16.4372 72.7923 16.2987 72.5461 16.0522C72.2999 15.8058 72.1615 15.4715 72.1615 15.1229V9.16469H75.3118V5.69469H72.1615V1.78906L68.5694 2.87471V5.69197H66.1443V9.16198H68.5694L68.568 16.3578Z" fill="white"/>
<path d="M115.888 35.0636C115.54 35.0636 115.206 34.9252 114.96 34.6788C114.714 34.4324 114.576 34.0983 114.576 33.7499V27.789H117.725V24.3197H114.576V20.4141L110.983 21.4997V24.3177H108.558V27.787H110.983V34.9794C110.983 35.918 111.349 36.8195 112.004 37.4914C112.659 38.1633 113.55 38.5524 114.487 38.5756H114.578H118V35.0588L115.888 35.0636Z" fill="white"/>
<path d="M54.1066 23.7188C53.0801 23.7172 52.0685 23.9647 51.1583 24.44V23.7188H47.5662V38.4531H51.1583V30.0976C51.1544 29.6936 51.2309 29.2929 51.3834 28.9188C51.5358 28.5448 51.7611 28.2048 52.0462 27.9189C52.6059 27.3938 53.3398 27.0946 54.1066 27.0788C54.4942 27.0789 54.8779 27.1555 55.2359 27.3041C55.594 27.4527 55.9192 27.6704 56.1931 27.9449C56.4671 28.2194 56.6843 28.5452 56.8324 28.9037C56.9805 29.2623 57.0566 29.6465 57.0563 30.0345C57.0563 30.0569 57.0563 30.078 57.0563 30.1024L57.0746 38.4646H60.5095L60.4831 29.7604C60.3935 28.1281 59.6826 26.5921 58.4966 25.4684C57.3106 24.3447 55.7396 23.7185 54.1066 23.7188Z" fill="white"/>
<path d="M24.2209 5.03125C22.9309 5.03126 21.6627 5.3648 20.5393 5.99953C19.4159 6.63427 18.4752 7.5487 17.8084 8.65425C17.1417 9.7598 16.7714 11.019 16.7335 12.3099C16.6955 13.6008 16.9912 14.8796 17.5919 16.0225C18.1927 17.1653 19.078 18.1335 20.1622 18.8333C21.2464 19.533 22.4928 19.9406 23.7806 20.0165C25.0683 20.0925 26.3538 19.8342 27.5126 19.2667C28.6714 18.6992 29.6641 17.8417 30.3947 16.7773L27.161 14.9086C26.6743 15.4822 26.0365 15.9075 25.3202 16.1361C24.9642 16.2431 24.5946 16.2982 24.2229 16.2996C23.5032 16.2996 22.7986 16.0921 22.1937 15.7017C21.5887 15.3113 21.1089 14.7547 20.8117 14.0985H31.5469C31.7796 13.0053 31.7654 11.8739 31.5054 10.7869C31.2454 9.69987 30.746 8.68477 30.0439 7.81574C29.3417 6.94671 28.4545 6.2457 27.4471 5.76395C26.4396 5.2822 25.3374 5.03187 24.2209 5.03125ZM20.6734 11.3518C20.9238 10.6081 21.401 9.96179 22.0377 9.50398C22.6745 9.04617 23.4386 8.79991 24.2226 8.79991C25.0065 8.79991 25.7707 9.04617 26.4074 9.50398C27.0441 9.96179 27.5213 10.6081 27.7717 11.3518H20.6734Z" fill="white"/>
<path d="M83.6427 5.10938C82.3527 5.10939 81.0846 5.44292 79.9612 6.07765C78.8377 6.71239 77.8971 7.62682 77.2303 8.73237C76.5635 9.83792 76.1933 11.0971 76.1553 12.388C76.1174 13.6789 76.4131 14.9577 77.0138 16.1006C77.6145 17.2435 78.4999 18.2117 79.5841 18.9114C80.6683 19.6112 81.9146 20.0187 83.2024 20.0947C84.4902 20.1706 85.7757 19.9123 86.9345 19.3448C88.0932 18.7773 89.086 17.9198 89.8166 16.8554L86.5829 14.9868C86.0961 15.5603 85.4583 15.9856 84.7421 16.2142C84.3861 16.3213 84.0165 16.3766 83.6448 16.3784C82.925 16.3785 82.2205 16.1709 81.6155 15.7805C81.0106 15.3901 80.5308 14.8335 80.2335 14.1773H90.9688C91.2016 13.084 91.1875 11.9525 90.9275 10.8655C90.6675 9.77838 90.1682 8.76319 89.466 7.89408C88.7639 7.02497 87.8766 6.32389 86.8691 5.8421C85.8616 5.36031 84.7593 5.10997 83.6427 5.10938ZM80.098 11.4306C80.3484 10.6869 80.8256 10.0406 81.4623 9.58278C82.099 9.12497 82.8632 8.87872 83.6471 8.87872C84.4311 8.87872 85.1952 9.12497 85.832 9.58278C86.4687 10.0406 86.9459 10.6869 87.1963 11.4306H80.098Z" fill="white"/>
<path d="M83.747 23.7031C82.4731 23.7037 81.2209 24.0335 80.1116 24.6607C79.0024 25.2879 78.0737 26.1912 77.4156 27.2831C76.7574 28.3751 76.392 29.6187 76.3547 30.8935C76.3175 32.1683 76.6097 33.4311 77.203 34.5597C77.7963 35.6883 78.6707 36.6444 79.7414 37.3354C80.8121 38.0264 82.0429 38.4289 83.3146 38.504C84.5863 38.579 85.8559 38.3241 87.0003 37.7638C88.1447 37.2036 89.1252 36.357 89.8469 35.306L86.6526 33.4604C86.172 34.0273 85.5419 34.4475 84.8341 34.6729C84.4823 34.7788 84.1171 34.8334 83.7497 34.8351C83.0391 34.8353 82.3436 34.6306 81.7461 34.2456C81.1486 33.8605 80.6745 33.3114 80.3805 32.6638H90.9842C91.2143 31.584 91.2004 30.4664 90.9436 29.3927C90.6868 28.3189 90.1936 27.3162 89.5001 26.4577C88.8066 25.5993 87.9302 24.9068 86.9351 24.4309C85.94 23.9551 84.8512 23.7078 83.7483 23.7072L83.747 23.7031ZM80.2429 29.9456C80.4904 29.2112 80.9619 28.573 81.5908 28.1209C82.2197 27.6689 82.9744 27.4257 83.7487 27.4257C84.5229 27.4257 85.2777 27.6689 85.9066 28.1209C86.5355 28.573 87.0069 29.2112 87.2544 29.9456H80.2429Z" fill="white"/>
<path d="M87.7112 0H83.3911L81.1619 3.82285H84.6185L87.7112 0Z" fill="white"/>
<path d="M96.1552 40.457H92.5603V49.8493H96.1552V40.457Z" fill="white"/>
<path d="M75.7057 47.2913L75.2618 48.8194C75.2129 48.9674 75.1817 49.1207 75.169 49.2761C75.1654 49.3292 75.1746 49.3823 75.1957 49.4312C75.2168 49.48 75.2492 49.5231 75.2903 49.557C75.4606 49.6403 75.6503 49.676 75.8393 49.6601L75.7871 49.8101H73.1133L73.158 49.6601C73.321 49.6667 73.4838 49.6437 73.6385 49.5922C73.7346 49.5486 73.8159 49.4779 73.8724 49.3887C73.9631 49.2077 74.0314 49.0163 74.0757 48.8187L75.0924 45.3379C75.1482 45.1772 75.1835 45.0101 75.1974 44.8405C75.1968 44.7905 75.1841 44.7414 75.1605 44.6974C75.1369 44.6533 75.1031 44.6156 75.0619 44.5874C74.9147 44.5038 74.7461 44.4653 74.5773 44.4768L74.622 44.3268H76.7909C77.2311 44.2961 77.672 44.374 78.0752 44.5535C78.2659 44.6567 78.4238 44.8115 78.531 45.0002C78.6381 45.1889 78.6901 45.4039 78.6812 45.6208C78.6774 45.855 78.6212 46.0853 78.5167 46.2948C78.4121 46.5043 78.262 46.6876 78.0773 46.8313C77.6179 47.2002 77.0387 47.3867 76.4506 47.3551C76.2011 47.3513 75.9522 47.33 75.7057 47.2913ZM75.7871 46.9799C75.9316 46.9993 76.0771 47.0099 76.2229 47.0118C76.4012 47.0141 76.5769 46.968 76.7312 46.8784C76.8855 46.7888 77.0127 46.6591 77.0992 46.5029C77.3051 46.1864 77.4159 45.8173 77.4185 45.4396C77.4253 45.3336 77.4109 45.2272 77.3759 45.1269C77.341 45.0266 77.2863 44.9342 77.2152 44.8554C77.1394 44.7837 77.0499 44.7282 76.952 44.6924C76.8541 44.6566 76.7499 44.6412 76.6458 44.6471C76.5943 44.6471 76.5313 44.6471 76.4561 44.6553L75.7871 46.9799Z" fill="white"/>
<path d="M82.3754 45.9872L81.5918 48.6756L81.5112 49.0033C81.5045 49.0325 81.5004 49.0622 81.499 49.0922C81.4987 49.1079 81.5016 49.1234 81.5074 49.138C81.5132 49.1526 81.5219 49.1658 81.5329 49.177C81.5412 49.1873 81.5514 49.1959 81.5631 49.2022C81.5747 49.2085 81.5875 49.2124 81.6007 49.2136C81.6907 49.1967 81.7729 49.1513 81.8352 49.084C81.9412 48.9675 82.0384 48.8432 82.1259 48.7122L82.2676 48.7848C82.1212 49.0808 81.9132 49.342 81.6576 49.5509C81.4567 49.7059 81.2104 49.7905 80.9568 49.7917C80.8933 49.7961 80.8295 49.7878 80.7693 49.7673C80.709 49.7468 80.6534 49.7145 80.6057 49.6723C80.5659 49.6331 80.5346 49.5862 80.5137 49.5343C80.4928 49.4825 80.4828 49.4269 80.4844 49.3711C80.5039 49.1712 80.5474 48.9743 80.6138 48.7848L80.7107 48.4571C80.4828 48.8893 80.1775 49.2759 79.81 49.5977C79.6595 49.721 79.4717 49.7894 79.2773 49.7917C79.1677 49.7985 79.0587 49.7732 78.9632 49.719C78.8678 49.6648 78.7902 49.584 78.7398 49.4864C78.6274 49.2743 78.5705 49.0371 78.5744 48.797C78.5938 48.3409 78.7122 47.8945 78.9214 47.4888C79.1296 47.0278 79.4422 46.6217 79.8344 46.3027C80.0744 46.0829 80.3821 45.9515 80.7067 45.9302C80.7729 45.9272 80.8391 45.9372 80.9014 45.9598C80.9638 45.9824 81.021 46.0171 81.07 46.0619C81.1837 46.1978 81.2545 46.3646 81.2733 46.5409L81.4183 46.0435L82.3754 45.9872ZM81.0828 46.7553C81.0959 46.5905 81.0609 46.4255 80.9819 46.2803C80.9599 46.2483 80.9303 46.2222 80.8957 46.2046C80.8612 46.1869 80.8227 46.1782 80.784 46.1792C80.6856 46.1857 80.5934 46.229 80.5257 46.3007C80.2667 46.5986 80.0685 46.9444 79.9422 47.3185C79.7546 47.7358 79.6483 48.1851 79.629 48.6423C79.6194 48.75 79.6431 48.858 79.6968 48.9517C79.7132 48.979 79.7359 49.0019 79.7631 49.0184C79.7902 49.035 79.821 49.0447 79.8527 49.0467C79.9253 49.0399 79.9957 49.0176 80.0591 48.9813C80.1224 48.945 80.1773 48.8956 80.22 48.8364C80.4122 48.6152 80.5738 48.3691 80.7006 48.1049C80.9296 47.6903 81.0603 47.2286 81.0828 46.7553Z" fill="white"/>
<path d="M84.5053 46.0627L83.8953 48.3351C84.178 47.6051 84.5583 46.9169 85.0258 46.2893C85.0843 46.2215 85.156 46.1664 85.2365 46.1274C85.3171 46.0884 85.4048 46.0664 85.4942 46.0627C85.5463 46.0611 85.5981 46.0713 85.6456 46.0927C85.6932 46.1141 85.7353 46.1461 85.7687 46.1862C85.8447 46.2861 85.882 46.4102 85.8737 46.5356C85.8818 46.77 85.8154 47.001 85.6839 47.1951C85.6562 47.2436 85.6169 47.2844 85.5696 47.314C85.5223 47.3436 85.4685 47.361 85.4128 47.3648C85.3623 47.3661 85.3125 47.3526 85.2695 47.3259C85.2265 47.2993 85.1922 47.2607 85.1709 47.2148C85.141 47.1515 85.1029 47.0924 85.0577 47.0391C85.0388 47.0227 85.0149 47.0133 84.9899 47.0126C84.9598 47.0134 84.9304 47.0218 84.9045 47.037C84.8134 47.1011 84.7348 47.1814 84.6727 47.2738C84.5353 47.4717 84.4168 47.6821 84.3189 47.9022C84.1793 48.1957 84.0704 48.4445 83.9922 48.6486C83.8629 49.0302 83.7537 49.4184 83.6649 49.8116H82.6875L83.3537 47.1307C83.3905 47.0012 83.4151 46.8685 83.427 46.7344C83.4302 46.6754 83.4168 46.6166 83.3883 46.5648C83.3635 46.5249 83.3267 46.4938 83.2833 46.4759C83.1933 46.4512 83.0999 46.4416 83.0067 46.4474L83.0433 46.33L84.2633 46.0633L84.5053 46.0627Z" fill="white"/>
<path d="M87.8744 45.9257L87.0462 48.8006C87.0126 48.9057 86.9899 49.0139 86.9784 49.1236C86.9791 49.1552 86.9923 49.1852 87.015 49.2071C87.0244 49.2184 87.0361 49.2276 87.0493 49.2342C87.0625 49.2407 87.0769 49.2444 87.0916 49.2451C87.1426 49.2422 87.1909 49.2207 87.2272 49.1847C87.3977 49.0254 87.5447 48.8426 87.6636 48.6419L87.7992 48.7233C87.3925 49.4317 86.9606 49.7861 86.5033 49.7865C86.3499 49.7942 86.1996 49.7411 86.0851 49.6386C86.0342 49.5909 85.9941 49.5329 85.9673 49.4684C85.9405 49.4039 85.9278 49.3345 85.9299 49.2647C85.9345 49.1355 85.9573 49.0076 85.9977 48.8848L86.5589 46.9523C86.6039 46.8162 86.631 46.6748 86.6395 46.5316C86.6393 46.5013 86.6323 46.4715 86.619 46.4442C86.6058 46.417 86.5866 46.3931 86.5629 46.3742C86.504 46.3258 86.4289 46.3016 86.3528 46.3063C86.3128 46.3063 86.2641 46.3063 86.2078 46.3104L86.26 46.1482L87.6291 45.9257H87.8744ZM87.6237 44.0665C87.7411 44.0658 87.856 44.1001 87.954 44.1649C88.0519 44.2297 88.1285 44.3221 88.1739 44.4305C88.2193 44.5389 88.2316 44.6583 88.2092 44.7737C88.1867 44.8891 88.1306 44.9952 88.0478 45.0786C87.9651 45.162 87.8595 45.2189 87.7444 45.2422C87.6293 45.2654 87.5099 45.254 87.4014 45.2093C87.2928 45.1645 87.1999 45.0885 87.1345 44.9909C87.0691 44.8933 87.0341 44.7784 87.034 44.6609C87.0327 44.5828 87.0473 44.5052 87.0769 44.4328C87.1065 44.3605 87.1505 44.295 87.2062 44.2402C87.26 44.184 87.3249 44.1395 87.3967 44.1096C87.4686 44.0797 87.5459 44.065 87.6237 44.0665Z" fill="white"/>
<path d="M91.1404 45.9271L90.9628 47.1769H90.8131C90.8079 46.8948 90.7026 46.6238 90.5162 46.4122C90.4464 46.3286 90.3598 46.2606 90.2621 46.2125C90.1644 46.1645 90.0577 46.1375 89.9489 46.1334C89.8364 46.1296 89.7267 46.1686 89.6419 46.2426C89.6036 46.2748 89.5729 46.3152 89.5521 46.3607C89.5312 46.4062 89.5207 46.4558 89.5212 46.5059C89.5204 46.5895 89.5383 46.6722 89.5734 46.7481C89.6366 46.8612 89.7155 46.9647 89.8079 47.0555C90.0976 47.3437 90.3574 47.6607 90.5833 48.0014C90.6737 48.1718 90.7203 48.3621 90.7188 48.555C90.7192 48.7673 90.6635 48.9758 90.5575 49.1596C90.4441 49.3553 90.2765 49.5139 90.0749 49.6163C89.87 49.7286 89.6403 49.7879 89.4067 49.7886C89.211 49.7825 89.0169 49.7512 88.8292 49.6956C88.7196 49.6588 88.6057 49.636 88.4903 49.6278C88.4362 49.6252 88.3823 49.6357 88.3331 49.6583C88.2825 49.6911 88.2396 49.7347 88.2077 49.7859H88.0586L88.2565 48.4397H88.3853C88.4467 48.6814 88.5356 48.9152 88.6503 49.1365C88.73 49.2732 88.8431 49.3874 88.979 49.4683C89.0973 49.5447 89.2341 49.5874 89.3748 49.5918C89.4422 49.5941 89.5094 49.5829 89.5725 49.5589C89.6356 49.5349 89.6932 49.4986 89.7422 49.4521C89.7885 49.4099 89.8254 49.3584 89.8505 49.301C89.8756 49.2436 89.8883 49.1816 89.8879 49.1189C89.8873 48.9901 89.8547 48.8635 89.793 48.7504C89.667 48.5507 89.52 48.3651 89.3545 48.1968C89.1183 47.9568 88.9098 47.6909 88.733 47.4042C88.6611 47.2615 88.6251 47.1034 88.6279 46.9435C88.6252 46.8064 88.6521 46.6704 88.7068 46.5447C88.7616 46.419 88.8429 46.3067 88.9451 46.2155C89.1937 46.0082 89.5121 45.9041 89.835 45.9244C90.0425 45.93 90.2486 45.96 90.4491 46.0139C90.5441 46.0394 90.6416 46.0542 90.7399 46.058C90.7902 46.0588 90.8399 46.0467 90.8844 46.0229C90.9288 45.9992 90.9665 45.9646 90.994 45.9223L91.1404 45.9271Z" fill="white"/>
</svg>
